<?xml version="1.0" encoding="utf-8"?>
<!-- Generator: Adobe Illustrator 27.5.0, SVG Export Plug-In . SVG Version: 6.00 Build 0)  -->
<svg version="1.1" id="Camada_1" xmlns="http://www.w3.org/2000/svg" xmlns:xlink="http://www.w3.org/1999/xlink" x="0px" y="0px"
	 viewBox="0 0 226 50" style="enable-background:new 0 0 226 50;" xml:space="preserve">
<style type="text/css">
	.st0{fill:#FFFFFF;filter:url(#Adobe_OpacityMaskFilter);}
	.st1{mask:url(#mask0_1_68_00000147213760858427086770000016610543142115602571_);}
	.st2{fill:#FFFFFF;}
</style>
<g>
	<g>
		<defs>
			<filter id="Adobe_OpacityMaskFilter" filterUnits="userSpaceOnUse" x="0" y="0" width="226" height="50">
				<feColorMatrix  type="matrix" values="1 0 0 0 0  0 1 0 0 0  0 0 1 0 0  0 0 0 1 0"/>
			</filter>
		</defs>
		
			<mask maskUnits="userSpaceOnUse" x="0" y="0" width="226" height="50" id="mask0_1_68_00000147213760858427086770000016610543142115602571_">
			<path class="st0" d="M226,0H0v50h226V0z"/>
		</mask>
		<g class="st1">
			<path class="st2" d="M226,12.2h-87.3C134.2,4.7,126.1,0,117.4,0s-16.8,4.7-21.2,12.2H0.1v2h95.1c-1.6,3.3-2.4,7-2.4,10.8
				c0,4.2,1,8.3,3,11.9H0.1v2h96.8c4.6,7,12.3,11.1,20.5,11.1c8.3,0,15.9-4.1,20.5-11.1h88v-2h-86.8c2-3.6,3-7.7,3-11.9
				c0-3.7-0.8-7.4-2.4-10.8H226V12.2z M136.6,37.4C132.4,44,125.2,48,117.4,48c-7.8,0-15-4-19.2-10.6c-2.3-3.7-3.6-8-3.6-12.4
				c0-4,1-7.9,2.9-11.3c4-7.2,11.6-11.7,19.8-11.7c4.1,0,8,1.1,11.5,3.1c3.4,2,6.3,4.9,8.3,8.5c1.9,3.4,2.9,7.3,2.9,11.3
				C140.1,29.4,138.9,33.7,136.6,37.4z"/>
			<path class="st2" d="M0.2,28c-0.3,1.5-0.1,2.6,0.5,3.6C1.3,32.5,2.8,33,5.3,33c1.4,0,2.6-0.2,3.6-0.6c1-0.4,1.9-1,2.6-1.8
				c0.7-0.8,1.2-1.6,1.5-2.5c0.2-0.8,0.3-1.5,0.1-2.1c-0.2-0.6-0.6-1.2-1.3-1.6c-0.7-0.4-1.9-0.9-3.7-1.3c-0.7-0.2-1.2-0.3-1.3-0.5
				c-0.2-0.2-0.2-0.4-0.1-0.6c0.1-0.3,0.3-0.6,0.6-0.8c0.3-0.2,0.7-0.3,1.3-0.3c0.6,0,1.1,0.1,1.3,0.4c0.3,0.3,0.4,0.8,0.3,1.4
				l4.2-0.2c0.3-1.5,0-2.6-0.7-3.3c-0.7-0.7-2-1-3.8-1c-1.5,0-2.7,0.2-3.7,0.6c-1,0.4-1.8,0.9-2.4,1.6c-0.6,0.7-1,1.4-1.3,2.1
				c-0.3,1.1-0.2,2,0.4,2.8c0.6,0.7,1.8,1.3,3.6,1.7c1.1,0.3,1.8,0.5,2,0.8c0.2,0.3,0.3,0.6,0.2,1c-0.1,0.4-0.4,0.7-0.8,1
				c-0.4,0.3-1,0.4-1.6,0.4c-0.8,0-1.4-0.3-1.7-0.9c-0.2-0.4-0.2-0.9-0.1-1.6L0.2,28z"/>
			<path class="st2" d="M25.7,18.4h-4.4l-2.6,8.6c-0.2,0.7-0.3,1.5-0.3,2.4c0,0.6,0.1,1.1,0.4,1.7c0.3,0.5,0.7,1,1.1,1.2
				c0.5,0.3,1.1,0.5,1.9,0.6c0.8,0.1,1.5,0.1,2.2,0.1c1.2,0,2.3-0.2,3.2-0.5c0.7-0.2,1.4-0.6,2.1-1.2c0.7-0.6,1.3-1.2,1.8-2
				c0.5-0.8,0.9-1.6,1.1-2.4l2.6-8.6h-4.4L28,27.1c-0.2,0.8-0.6,1.4-1.2,1.8c-0.6,0.4-1.2,0.7-2,0.7c-0.8,0-1.3-0.2-1.6-0.7
				c-0.3-0.4-0.3-1.1-0.1-1.8L25.7,18.4z"/>
			<path class="st2" d="M45.1,27.4c1.8,0,3.2-0.4,4.3-1.2c1.1-0.8,1.9-1.9,2.3-3.4c0.4-1.4,0.4-2.5-0.2-3.3
				c-0.6-0.8-1.6-1.1-3.2-1.1h-7.3l-4.3,14.4h4.4l1.6-5.3H45.1z M44.6,21.3h1.3c0.8,0,1.3,0.2,1.5,0.5c0.2,0.3,0.2,0.7,0.1,1.1
				c-0.1,0.5-0.4,0.8-0.9,1.1c-0.4,0.3-1.1,0.4-1.9,0.4h-1.1L44.6,21.3z"/>
			<path class="st2" d="M69.4,21.4l0.9-3.1H58.6l-4.3,14.4h12l1-3.3h-7.6l0.9-2.8h6.8l0.9-2.9h-6.8l0.7-2.3H69.4z"/>
			<path class="st2" d="M86.7,24.4c0.5-0.6,0.9-1.3,1.1-2.1c0.3-0.9,0.3-1.7,0-2.3c-0.2-0.6-0.7-1.1-1.3-1.3c-0.6-0.2-1.6-0.4-3-0.4
				h-7.3l-4.3,14.4h4.4l1.8-5.8h0.4c0.4,0,0.7,0.1,1,0.3c0.2,0.2,0.3,0.5,0.5,1.1l1,4.4h5l-0.9-4.2c0-0.2-0.2-0.5-0.3-0.9
				c-0.2-0.4-0.3-0.6-0.5-0.8c-0.2-0.2-0.5-0.4-1-0.5c0.7-0.2,1.3-0.3,1.7-0.6C85.6,25.5,86.2,25,86.7,24.4z M83.3,22.7
				c-0.1,0.3-0.3,0.6-0.5,0.8c-0.3,0.2-0.5,0.4-0.8,0.5c-0.6,0.1-1,0.2-1.2,0.2h-1.9l0.9-2.9h1.9c0.8,0,1.3,0.1,1.5,0.4
				C83.4,21.9,83.4,22.2,83.3,22.7z"/>
			<path class="st2" d="M157.8,18.4h-7.3l-4.3,14.4h4.4l1.6-5.3h2.4c1.8,0,3.2-0.4,4.3-1.2c1.1-0.8,1.9-1.9,2.3-3.4
				c0.4-1.4,0.4-2.5-0.2-3.3C160.5,18.7,159.4,18.4,157.8,18.4z M157,22.9c-0.1,0.5-0.4,0.8-0.9,1.1c-0.4,0.3-1.1,0.4-1.9,0.4h-1.1
				l1-3.2h1.3c0.8,0,1.3,0.2,1.5,0.5C157.1,22.1,157.1,22.4,157,22.9z"/>
			<path class="st2" d="M167.9,32.7l4.3-14.4h-4.4l-4.3,14.4H167.9z"/>
			<path class="st2" d="M190.7,18.4h-12.4l-0.9,3.1h7.1L174,29.8l-0.9,3h13.5l0.9-3.1h-8.3l10.5-8.4L190.7,18.4z"/>
			<path class="st2" d="M209,18.4h-12.4l-0.9,3.1h7.1l-10.4,8.3l-0.9,3h13.5l0.9-3.1h-8.3l10.5-8.4L209,18.4z"/>
			<path class="st2" d="M224.5,32.7l-1-14.4h-4.8l-9.7,14.4h4.5l1.4-2.4h5l0,2.4H224.5z M216.8,27.3l3.1-5.2l0,5.2H216.8z"/>
			<path class="st2" d="M118.6,12.2c-0.7-0.1-1.6-0.1-2.3,0c-2,0.2-3.8,0.8-5.4,1.8c-0.3,0.2-0.5,0.3-0.7,0.5
				c-0.1,0.1-0.3,0.2-0.4,0.3c-0.4,0.3-0.7,0.6-1.1,1c-2.2,2.3-3.6,5.4-3.6,8.8c0,6.9,5.5,12.5,12.3,12.5c6.8,0,12.3-5.6,12.3-12.5
				C129.8,18.1,124.9,12.8,118.6,12.2z M121.3,31.6c-1,1-2.2,1.4-3.8,1.4c-1.5,0-2.7-0.4-3.7-1.2c-1.2-0.9-1.8-2.2-1.8-3.8
				c0-0.9,0.2-1.7,0.7-2.5c0.4-0.7,1.1-1.3,2.1-1.7c-0.8-0.3-1.4-0.8-1.8-1.4c-0.4-0.6-0.5-1.3-0.5-2c0-1.2,0.4-2.3,1.3-3.1
				c0.9-0.8,2.1-1.2,3.6-1.2c1.6,0,2.8,0.4,3.6,1.2c0.9,0.8,1.3,1.8,1.3,3.1c0,0.8-0.2,1.5-0.6,2.1c-0.4,0.6-0.9,1.1-1.7,1.4
				c0.9,0.4,1.6,0.9,2.1,1.6c0.5,0.7,0.7,1.5,0.7,2.4C122.7,29.4,122.3,30.7,121.3,31.6z"/>
			<path class="st2" d="M117.3,22.6c0.6,0,1.1-0.2,1.4-0.5c0.4-0.4,0.5-0.9,0.5-1.5c0-0.6-0.2-1.1-0.5-1.4c-0.4-0.4-0.8-0.5-1.4-0.5
				c-0.6,0-1.1,0.2-1.4,0.5c-0.4,0.4-0.5,0.8-0.5,1.4c0,0.6,0.2,1.1,0.5,1.5C116.3,22.5,116.7,22.6,117.3,22.6z"/>
			<path class="st2" d="M117.4,25.2c-0.8,0-1.3,0.3-1.7,0.8c-0.4,0.5-0.6,1.1-0.6,1.7c0,0.9,0.2,1.6,0.7,2c0.4,0.5,1,0.7,1.7,0.7
				c0.7,0,1.2-0.2,1.6-0.7c0.4-0.5,0.6-1.1,0.6-2c0-0.8-0.2-1.4-0.6-1.9S118,25.2,117.4,25.2z"/>
		</g>
	</g>
</g>
</svg>
